<mxfile host="app.diagrams.net" agent="Mozilla/5.0 (Windows NT 10.0; Win64; x64) AppleWebKit/537.36 (KHTML, like Gecko) Chrome/141.0.0.0 Safari/537.36 Edg/141.0.0.0" version="28.2.5">
  <diagram name="Page-1" id="Ra3N6cfHhkFCgmvxl-Xl">
    <mxGraphModel grid="1" page="1" gridSize="10" guides="1" tooltips="1" connect="1" arrows="1" fold="1" pageScale="1" pageWidth="850" pageHeight="1100" math="0" shadow="0">
      <root>
        <mxCell id="0" />
        <mxCell id="1" parent="0" />
        <mxCell id="2" value="เริ่มต้น" style="ellipse;whiteSpace=wrap;html=1;" vertex="1" parent="1">
          <mxGeometry x="340" y="120" width="100" height="40" as="geometry" />
        </mxCell>
        <mxCell id="3" value="กำหนดค่า arr={15, 7, ...} และคำนวณขนาด n" style="rounded=0;whiteSpace=wrap;html=1;" vertex="1" parent="1">
          <mxGeometry x="310" y="180" width="160" height="50" as="geometry" />
        </mxCell>
        <mxCell id="4" value="แสดง &quot;Old Series : &quot;" style="shape=parallelogram;perimeter=parallelogramPerimeter;whiteSpace=wrap;html=1;fixedSize=1;" vertex="1" parent="1">
          <mxGeometry x="310" y="250" width="160" height="40" as="geometry" />
        </mxCell>
        <mxCell id="WzsOCUm1U-lIkB2MyEJJ-84" value="" style="edgeStyle=orthogonalEdgeStyle;rounded=0;orthogonalLoop=1;jettySize=auto;html=1;" edge="1" parent="1" source="5" target="WzsOCUm1U-lIkB2MyEJJ-83">
          <mxGeometry relative="1" as="geometry" />
        </mxCell>
        <mxCell id="5" value="กำหนด i = 0 สำหรับแสดงผลชุดเดิม" style="rounded=0;whiteSpace=wrap;html=1;" vertex="1" parent="1">
          <mxGeometry x="310" y="310" width="160" height="40" as="geometry" />
        </mxCell>
        <mxCell id="6" value="i &lt; n ?" style="rhombus;whiteSpace=wrap;html=1;" vertex="1" parent="1">
          <mxGeometry x="340" y="460" width="100" height="60" as="geometry" />
        </mxCell>
        <mxCell id="7" value="แสดงค่า arr[i]" style="shape=parallelogram;perimeter=parallelogramPerimeter;whiteSpace=wrap;html=1;fixedSize=1;" vertex="1" parent="1">
          <mxGeometry x="310" y="550" width="160" height="40" as="geometry" />
        </mxCell>
        <mxCell id="8" value="i &lt; n - 1 ?" style="rhombus;whiteSpace=wrap;html=1;" vertex="1" parent="1">
          <mxGeometry x="340" y="620" width="100" height="60" as="geometry" />
        </mxCell>
        <mxCell id="WzsOCUm1U-lIkB2MyEJJ-81" style="edgeStyle=orthogonalEdgeStyle;rounded=0;orthogonalLoop=1;jettySize=auto;html=1;entryX=1;entryY=0.5;entryDx=0;entryDy=0;" edge="1" parent="1" source="9" target="WzsOCUm1U-lIkB2MyEJJ-79">
          <mxGeometry relative="1" as="geometry">
            <Array as="points">
              <mxPoint x="520" y="735" />
            </Array>
          </mxGeometry>
        </mxCell>
        <mxCell id="9" value="แสดง &quot;, &quot;" style="shape=parallelogram;perimeter=parallelogramPerimeter;whiteSpace=wrap;html=1;fixedSize=1;" vertex="1" parent="1">
          <mxGeometry x="480" y="630" width="100" height="40" as="geometry" />
        </mxCell>
        <mxCell id="WzsOCUm1U-lIkB2MyEJJ-82" style="edgeStyle=orthogonalEdgeStyle;rounded=0;orthogonalLoop=1;jettySize=auto;html=1;entryX=1;entryY=0.5;entryDx=0;entryDy=0;" edge="1" parent="1" source="10" target="WzsOCUm1U-lIkB2MyEJJ-83">
          <mxGeometry relative="1" as="geometry">
            <mxPoint x="649.9999999999998" y="500" as="targetPoint" />
            <Array as="points">
              <mxPoint x="620" y="810" />
              <mxPoint x="620" y="405" />
            </Array>
          </mxGeometry>
        </mxCell>
        <mxCell id="10" value="i = i + 1" style="rounded=0;whiteSpace=wrap;html=1;" vertex="1" parent="1">
          <mxGeometry x="340" y="790" width="100" height="40" as="geometry" />
        </mxCell>
        <mxCell id="11" value="แสดงการขึ้นบรรทัดใหม่" style="shape=parallelogram;perimeter=parallelogramPerimeter;whiteSpace=wrap;html=1;fixedSize=1;" vertex="1" parent="1">
          <mxGeometry x="310" y="940" width="160" height="40" as="geometry" />
        </mxCell>
        <mxCell id="WzsOCUm1U-lIkB2MyEJJ-91" value="" style="edgeStyle=orthogonalEdgeStyle;rounded=0;orthogonalLoop=1;jettySize=auto;html=1;" edge="1" parent="1" source="12" target="WzsOCUm1U-lIkB2MyEJJ-90">
          <mxGeometry relative="1" as="geometry" />
        </mxCell>
        <mxCell id="12" value="กำหนด i = 0 สำหรับการเรียงลำดับ" style="rounded=0;whiteSpace=wrap;html=1;" vertex="1" parent="1">
          <mxGeometry x="310" y="1010" width="160" height="40" as="geometry" />
        </mxCell>
        <mxCell id="13" value="i &lt; n - 1 ?" style="rhombus;whiteSpace=wrap;html=1;" vertex="1" parent="1">
          <mxGeometry x="340" y="1160" width="100" height="60" as="geometry" />
        </mxCell>
        <mxCell id="WzsOCUm1U-lIkB2MyEJJ-95" value="" style="edgeStyle=orthogonalEdgeStyle;rounded=0;orthogonalLoop=1;jettySize=auto;html=1;" edge="1" parent="1" source="14" target="WzsOCUm1U-lIkB2MyEJJ-94">
          <mxGeometry relative="1" as="geometry" />
        </mxCell>
        <mxCell id="14" value="กำหนด j = 0 สำหรับวนซ้ำใน" style="rounded=0;whiteSpace=wrap;html=1;" vertex="1" parent="1">
          <mxGeometry x="310" y="1260" width="160" height="40" as="geometry" />
        </mxCell>
        <mxCell id="15" value="j &lt; n - i - 1 ?" style="rhombus;whiteSpace=wrap;html=1;" vertex="1" parent="1">
          <mxGeometry x="340" y="1380" width="100" height="60" as="geometry" />
        </mxCell>
        <mxCell id="WzsOCUm1U-lIkB2MyEJJ-93" style="edgeStyle=orthogonalEdgeStyle;rounded=0;orthogonalLoop=1;jettySize=auto;html=1;entryX=0;entryY=0.5;entryDx=0;entryDy=0;" edge="1" parent="1" source="16" target="17">
          <mxGeometry relative="1" as="geometry" />
        </mxCell>
        <mxCell id="WzsOCUm1U-lIkB2MyEJJ-99" value="" style="edgeStyle=orthogonalEdgeStyle;rounded=0;orthogonalLoop=1;jettySize=auto;html=1;" edge="1" parent="1" source="16" target="WzsOCUm1U-lIkB2MyEJJ-98">
          <mxGeometry relative="1" as="geometry" />
        </mxCell>
        <mxCell id="16" value="arr[j] &gt; arr[j + 1] ?" style="rhombus;whiteSpace=wrap;html=1;" vertex="1" parent="1">
          <mxGeometry x="340" y="1480" width="100" height="60" as="geometry" />
        </mxCell>
        <mxCell id="WzsOCUm1U-lIkB2MyEJJ-101" style="edgeStyle=orthogonalEdgeStyle;rounded=0;orthogonalLoop=1;jettySize=auto;html=1;entryX=1;entryY=0.5;entryDx=0;entryDy=0;" edge="1" parent="1" source="17" target="WzsOCUm1U-lIkB2MyEJJ-98">
          <mxGeometry relative="1" as="geometry">
            <Array as="points">
              <mxPoint x="540" y="1580" />
            </Array>
          </mxGeometry>
        </mxCell>
        <mxCell id="17" value="สลับค่า arr[j] กับ arr[j + 1]" style="rounded=0;whiteSpace=wrap;html=1;" vertex="1" parent="1">
          <mxGeometry x="480" y="1490" width="120" height="40" as="geometry" />
        </mxCell>
        <mxCell id="WzsOCUm1U-lIkB2MyEJJ-97" style="edgeStyle=orthogonalEdgeStyle;rounded=0;orthogonalLoop=1;jettySize=auto;html=1;entryX=1;entryY=0.5;entryDx=0;entryDy=0;" edge="1" parent="1" source="18" target="WzsOCUm1U-lIkB2MyEJJ-94">
          <mxGeometry relative="1" as="geometry">
            <Array as="points">
              <mxPoint x="640" y="1660" />
              <mxPoint x="640" y="1345" />
            </Array>
          </mxGeometry>
        </mxCell>
        <mxCell id="18" value="j = j + 1" style="rounded=0;whiteSpace=wrap;html=1;" vertex="1" parent="1">
          <mxGeometry x="340" y="1640" width="100" height="40" as="geometry" />
        </mxCell>
        <mxCell id="WzsOCUm1U-lIkB2MyEJJ-92" style="edgeStyle=orthogonalEdgeStyle;rounded=0;orthogonalLoop=1;jettySize=auto;html=1;entryX=1;entryY=0.5;entryDx=0;entryDy=0;" edge="1" parent="1" source="19" target="WzsOCUm1U-lIkB2MyEJJ-90">
          <mxGeometry relative="1" as="geometry">
            <Array as="points">
              <mxPoint x="680" y="1810" />
              <mxPoint x="680" y="1115" />
            </Array>
          </mxGeometry>
        </mxCell>
        <mxCell id="19" value="i = i + 1" style="rounded=0;whiteSpace=wrap;html=1;" vertex="1" parent="1">
          <mxGeometry x="335" y="1790" width="100" height="40" as="geometry" />
        </mxCell>
        <mxCell id="20" value="แสดง &quot;New Series : &quot;" style="shape=parallelogram;perimeter=parallelogramPerimeter;whiteSpace=wrap;html=1;fixedSize=1;" vertex="1" parent="1">
          <mxGeometry x="310" y="1970" width="160" height="40" as="geometry" />
        </mxCell>
        <mxCell id="WzsOCUm1U-lIkB2MyEJJ-112" value="" style="edgeStyle=orthogonalEdgeStyle;rounded=0;orthogonalLoop=1;jettySize=auto;html=1;" edge="1" parent="1" source="21" target="WzsOCUm1U-lIkB2MyEJJ-111">
          <mxGeometry relative="1" as="geometry" />
        </mxCell>
        <mxCell id="21" value="กำหนด i = 0 สำหรับแสดงผลชุดใหม่" style="rounded=0;whiteSpace=wrap;html=1;" vertex="1" parent="1">
          <mxGeometry x="310" y="2050" width="160" height="40" as="geometry" />
        </mxCell>
        <mxCell id="22" value="i &lt; n ?" style="rhombus;whiteSpace=wrap;html=1;" vertex="1" parent="1">
          <mxGeometry x="340" y="2170" width="100" height="60" as="geometry" />
        </mxCell>
        <mxCell id="23" value="แสดงค่า arr[i]" style="shape=parallelogram;perimeter=parallelogramPerimeter;whiteSpace=wrap;html=1;fixedSize=1;" vertex="1" parent="1">
          <mxGeometry x="310" y="2260" width="160" height="40" as="geometry" />
        </mxCell>
        <mxCell id="24" value="i &lt; n - 1 ?" style="rhombus;whiteSpace=wrap;html=1;" vertex="1" parent="1">
          <mxGeometry x="340" y="2330" width="100" height="60" as="geometry" />
        </mxCell>
        <mxCell id="WzsOCUm1U-lIkB2MyEJJ-109" style="edgeStyle=orthogonalEdgeStyle;rounded=0;orthogonalLoop=1;jettySize=auto;html=1;entryX=1;entryY=0.5;entryDx=0;entryDy=0;" edge="1" parent="1" source="25" target="WzsOCUm1U-lIkB2MyEJJ-108">
          <mxGeometry relative="1" as="geometry">
            <Array as="points">
              <mxPoint x="550" y="2440" />
            </Array>
          </mxGeometry>
        </mxCell>
        <mxCell id="25" value="แสดง &quot;, &quot;" style="shape=parallelogram;perimeter=parallelogramPerimeter;whiteSpace=wrap;html=1;fixedSize=1;" vertex="1" parent="1">
          <mxGeometry x="500" y="2340" width="100" height="40" as="geometry" />
        </mxCell>
        <mxCell id="WzsOCUm1U-lIkB2MyEJJ-114" style="edgeStyle=orthogonalEdgeStyle;rounded=0;orthogonalLoop=1;jettySize=auto;html=1;entryX=1;entryY=0.5;entryDx=0;entryDy=0;" edge="1" parent="1" source="26" target="WzsOCUm1U-lIkB2MyEJJ-111">
          <mxGeometry relative="1" as="geometry">
            <Array as="points">
              <mxPoint x="640" y="2520" />
              <mxPoint x="640" y="2130" />
            </Array>
          </mxGeometry>
        </mxCell>
        <mxCell id="26" value="i = i + 1" style="rounded=0;whiteSpace=wrap;html=1;" vertex="1" parent="1">
          <mxGeometry x="340" y="2500" width="100" height="40" as="geometry" />
        </mxCell>
        <mxCell id="27" value="แสดงการขึ้นบรรทัดใหม่" style="shape=parallelogram;perimeter=parallelogramPerimeter;whiteSpace=wrap;html=1;fixedSize=1;" vertex="1" parent="1">
          <mxGeometry x="310" y="2630" width="160" height="40" as="geometry" />
        </mxCell>
        <mxCell id="28" value="กำหนด pos = -1" style="rounded=0;whiteSpace=wrap;html=1;" vertex="1" parent="1">
          <mxGeometry x="310" y="2700" width="160" height="40" as="geometry" />
        </mxCell>
        <mxCell id="WzsOCUm1U-lIkB2MyEJJ-119" value="" style="edgeStyle=orthogonalEdgeStyle;rounded=0;orthogonalLoop=1;jettySize=auto;html=1;" edge="1" parent="1" source="29" target="WzsOCUm1U-lIkB2MyEJJ-118">
          <mxGeometry relative="1" as="geometry" />
        </mxCell>
        <mxCell id="29" value="กำหนด i = 0 สำหรับการค้นหา" style="rounded=0;whiteSpace=wrap;html=1;" vertex="1" parent="1">
          <mxGeometry x="310" y="2770" width="160" height="40" as="geometry" />
        </mxCell>
        <mxCell id="30" value="i &lt; n ?" style="rhombus;whiteSpace=wrap;html=1;" vertex="1" parent="1">
          <mxGeometry x="340" y="2920" width="100" height="60" as="geometry" />
        </mxCell>
        <mxCell id="31" value="arr[i] = 32 ?" style="rhombus;whiteSpace=wrap;html=1;" vertex="1" parent="1">
          <mxGeometry x="340" y="3010" width="100" height="60" as="geometry" />
        </mxCell>
        <mxCell id="32" value="กำหนด pos = i" style="rounded=0;whiteSpace=wrap;html=1;" vertex="1" parent="1">
          <mxGeometry x="520" y="3020" width="120" height="40" as="geometry" />
        </mxCell>
        <mxCell id="WzsOCUm1U-lIkB2MyEJJ-123" style="edgeStyle=orthogonalEdgeStyle;rounded=0;orthogonalLoop=1;jettySize=auto;html=1;entryX=1;entryY=0.5;entryDx=0;entryDy=0;" edge="1" parent="1" source="33" target="WzsOCUm1U-lIkB2MyEJJ-121">
          <mxGeometry relative="1" as="geometry">
            <Array as="points">
              <mxPoint x="580" y="3225" />
            </Array>
          </mxGeometry>
        </mxCell>
        <mxCell id="33" value="ออกจากการวนซ้ำ (break)" style="rounded=0;whiteSpace=wrap;html=1;" vertex="1" parent="1">
          <mxGeometry x="520" y="3090" width="120" height="40" as="geometry" />
        </mxCell>
        <mxCell id="34" value="i = i + 1" style="rounded=0;whiteSpace=wrap;html=1;" vertex="1" parent="1">
          <mxGeometry x="340" y="3120" width="100" height="40" as="geometry" />
        </mxCell>
        <mxCell id="35" value="แสดง &quot;Pos of 32 : &quot; และค่า pos" style="shape=parallelogram;perimeter=parallelogramPerimeter;whiteSpace=wrap;html=1;fixedSize=1;" vertex="1" parent="1">
          <mxGeometry x="310" y="3290" width="160" height="40" as="geometry" />
        </mxCell>
        <mxCell id="36" value="สิ้นสุด" style="ellipse;whiteSpace=wrap;html=1;" vertex="1" parent="1">
          <mxGeometry x="340" y="3360" width="100" height="40" as="geometry" />
        </mxCell>
        <mxCell id="37" value="" style="endArrow=classic;html=1;exitX=0.5;exitY=1;entryX=0.5;entryY=0;" edge="1" parent="1" source="2" target="3">
          <mxGeometry width="50" height="50" relative="1" as="geometry">
            <mxPoint x="390" y="160" as="sourcePoint" />
            <mxPoint x="390" y="210" as="targetPoint" />
          </mxGeometry>
        </mxCell>
        <mxCell id="38" value="" style="endArrow=classic;html=1;exitX=0.5;exitY=1;entryX=0.5;entryY=0;" edge="1" parent="1" source="3" target="4">
          <mxGeometry width="50" height="50" relative="1" as="geometry">
            <mxPoint x="390" y="240" as="sourcePoint" />
            <mxPoint x="390" y="290" as="targetPoint" />
          </mxGeometry>
        </mxCell>
        <mxCell id="39" value="" style="endArrow=classic;html=1;exitX=0.5;exitY=1;entryX=0.5;entryY=0;" edge="1" parent="1" source="4" target="5">
          <mxGeometry width="50" height="50" relative="1" as="geometry">
            <mxPoint x="390" y="300" as="sourcePoint" />
            <mxPoint x="390" y="350" as="targetPoint" />
          </mxGeometry>
        </mxCell>
        <mxCell id="41" value="ใช่" style="endArrow=classic;html=1;exitX=0.5;exitY=1;entryX=0.5;entryY=0;" edge="1" parent="1" source="6" target="7">
          <mxGeometry width="50" height="50" relative="1" as="geometry">
            <mxPoint x="390" y="530" as="sourcePoint" />
            <mxPoint x="390" y="580" as="targetPoint" />
          </mxGeometry>
        </mxCell>
        <mxCell id="42" value="" style="endArrow=classic;html=1;exitX=0.5;exitY=1;entryX=0.5;entryY=0;" edge="1" parent="1" source="7" target="8">
          <mxGeometry width="50" height="50" relative="1" as="geometry">
            <mxPoint x="390" y="610" as="sourcePoint" />
            <mxPoint x="390" y="660" as="targetPoint" />
          </mxGeometry>
        </mxCell>
        <mxCell id="43" value="ไม่" style="endArrow=classic;html=1;exitX=0;exitY=0.5;entryX=0;entryY=0.5;entryDx=0;entryDy=0;" edge="1" parent="1" source="6" target="WzsOCUm1U-lIkB2MyEJJ-86">
          <mxGeometry width="50" height="50" relative="1" as="geometry">
            <mxPoint x="320" y="490" as="sourcePoint" />
            <mxPoint x="320" y="800" as="targetPoint" />
            <Array as="points">
              <mxPoint x="280" y="490" />
              <mxPoint x="280" y="890" />
            </Array>
          </mxGeometry>
        </mxCell>
        <mxCell id="44" value="ใช่" style="endArrow=classic;html=1;exitX=1;exitY=0.5;entryX=0;entryY=0.5;entryDx=0;entryDy=0;" edge="1" parent="1" source="8" target="9">
          <mxGeometry width="50" height="50" relative="1" as="geometry">
            <mxPoint x="450" y="650" as="sourcePoint" />
            <mxPoint x="530" y="650" as="targetPoint" />
          </mxGeometry>
        </mxCell>
        <mxCell id="45" value="ไม่" style="endArrow=classic;html=1;exitX=0.5;exitY=1;entryX=0.5;entryY=0;entryDx=0;entryDy=0;" edge="1" parent="1" source="8" target="WzsOCUm1U-lIkB2MyEJJ-79">
          <mxGeometry width="50" height="50" relative="1" as="geometry">
            <mxPoint x="390" y="700" as="sourcePoint" />
            <mxPoint x="390" y="750" as="targetPoint" />
          </mxGeometry>
        </mxCell>
        <mxCell id="48" value="" style="endArrow=classic;html=1;exitX=0.5;exitY=1;entryX=0.5;entryY=0;" edge="1" parent="1" source="11" target="12">
          <mxGeometry width="50" height="50" relative="1" as="geometry">
            <mxPoint x="390" y="990" as="sourcePoint" />
            <mxPoint x="390" y="1040" as="targetPoint" />
          </mxGeometry>
        </mxCell>
        <mxCell id="50" value="ใช่" style="endArrow=classic;html=1;exitX=0.5;exitY=1;entryX=0.5;entryY=0;" edge="1" parent="1" source="13" target="14">
          <mxGeometry width="50" height="50" relative="1" as="geometry">
            <mxPoint x="390" y="1260" as="sourcePoint" />
            <mxPoint x="390" y="1310" as="targetPoint" />
          </mxGeometry>
        </mxCell>
        <mxCell id="51" value="ไม่" style="endArrow=classic;html=1;exitX=0;exitY=0.5;entryX=0;entryY=0.5;entryDx=0;entryDy=0;" edge="1" parent="1" source="13" target="WzsOCUm1U-lIkB2MyEJJ-89">
          <mxGeometry width="50" height="50" relative="1" as="geometry">
            <mxPoint x="310" y="1480" as="sourcePoint" />
            <mxPoint x="310" y="1990" as="targetPoint" />
            <Array as="points">
              <mxPoint x="240" y="1190" />
              <mxPoint x="240" y="1480" />
              <mxPoint x="240" y="1920" />
            </Array>
          </mxGeometry>
        </mxCell>
        <mxCell id="53" value="ใช่" style="endArrow=classic;html=1;exitX=0.5;exitY=1;entryX=0.5;entryY=0;" edge="1" parent="1" source="15" target="16">
          <mxGeometry width="50" height="50" relative="1" as="geometry">
            <mxPoint x="390" y="1450" as="sourcePoint" />
            <mxPoint x="390" y="1500" as="targetPoint" />
          </mxGeometry>
        </mxCell>
        <mxCell id="58" value="ไม่" style="endArrow=classic;html=1;exitX=0;exitY=0.5;entryX=0;entryY=0.5;entryDx=0;entryDy=0;" edge="1" parent="1" source="15" target="WzsOCUm1U-lIkB2MyEJJ-104">
          <mxGeometry width="50" height="50" relative="1" as="geometry">
            <mxPoint x="310" y="1410" as="sourcePoint" />
            <mxPoint x="310" y="1680" as="targetPoint" />
            <Array as="points">
              <mxPoint x="290" y="1410" />
              <mxPoint x="290" y="1720" />
            </Array>
          </mxGeometry>
        </mxCell>
        <mxCell id="60" value="" style="endArrow=classic;html=1;exitX=0.5;exitY=1;entryX=0.5;entryY=0;" edge="1" parent="1" source="20" target="21">
          <mxGeometry width="50" height="50" relative="1" as="geometry">
            <mxPoint x="390" y="2020" as="sourcePoint" />
            <mxPoint x="390" y="2070" as="targetPoint" />
          </mxGeometry>
        </mxCell>
        <mxCell id="62" value="ใช่" style="endArrow=classic;html=1;exitX=0.5;exitY=1;entryX=0.5;entryY=0;" edge="1" parent="1" source="22" target="23">
          <mxGeometry width="50" height="50" relative="1" as="geometry">
            <mxPoint x="390" y="2210" as="sourcePoint" />
            <mxPoint x="390" y="2260" as="targetPoint" />
          </mxGeometry>
        </mxCell>
        <mxCell id="63" value="ไม่" style="endArrow=classic;html=1;exitX=0;exitY=0.5;entryX=0;entryY=0.5;entryDx=0;entryDy=0;" edge="1" parent="1" source="22" target="WzsOCUm1U-lIkB2MyEJJ-115">
          <mxGeometry width="50" height="50" relative="1" as="geometry">
            <mxPoint x="320" y="2170" as="sourcePoint" />
            <mxPoint x="320" y="2480" as="targetPoint" />
            <Array as="points">
              <mxPoint x="280" y="2200" />
              <mxPoint x="280" y="2480" />
              <mxPoint x="280" y="2580" />
            </Array>
          </mxGeometry>
        </mxCell>
        <mxCell id="64" value="" style="endArrow=classic;html=1;exitX=0.5;exitY=1;entryX=0.5;entryY=0;" edge="1" parent="1" source="23" target="24">
          <mxGeometry width="50" height="50" relative="1" as="geometry">
            <mxPoint x="390" y="2310" as="sourcePoint" />
            <mxPoint x="390" y="2360" as="targetPoint" />
          </mxGeometry>
        </mxCell>
        <mxCell id="65" value="ใช่" style="endArrow=classic;html=1;exitX=1;exitY=0.5;entryX=0;entryY=0.5;entryDx=0;entryDy=0;" edge="1" parent="1" source="24" target="25">
          <mxGeometry width="50" height="50" relative="1" as="geometry">
            <mxPoint x="450" y="2360" as="sourcePoint" />
            <mxPoint x="530" y="2360" as="targetPoint" />
          </mxGeometry>
        </mxCell>
        <mxCell id="66" value="ไม่" style="endArrow=classic;html=1;exitX=0.5;exitY=1;entryX=0.5;entryY=0;entryDx=0;entryDy=0;" edge="1" parent="1" source="24" target="WzsOCUm1U-lIkB2MyEJJ-108">
          <mxGeometry width="50" height="50" relative="1" as="geometry">
            <mxPoint x="390" y="2410" as="sourcePoint" />
            <mxPoint x="390" y="2460" as="targetPoint" />
          </mxGeometry>
        </mxCell>
        <mxCell id="69" value="" style="endArrow=classic;html=1;exitX=0.5;exitY=1;entryX=0.5;entryY=0;" edge="1" parent="1" source="27" target="28">
          <mxGeometry width="50" height="50" relative="1" as="geometry">
            <mxPoint x="380" y="2680" as="sourcePoint" />
            <mxPoint x="380" y="2730" as="targetPoint" />
          </mxGeometry>
        </mxCell>
        <mxCell id="70" value="" style="endArrow=classic;html=1;exitX=0.5;exitY=1;entryX=0.5;entryY=0;" edge="1" parent="1" source="28" target="29">
          <mxGeometry width="50" height="50" relative="1" as="geometry">
            <mxPoint x="390" y="2760" as="sourcePoint" />
            <mxPoint x="390" y="2810" as="targetPoint" />
          </mxGeometry>
        </mxCell>
        <mxCell id="72" value="ใช่" style="endArrow=classic;html=1;exitX=0.5;exitY=1;entryX=0.5;entryY=0;" edge="1" parent="1" source="30" target="31">
          <mxGeometry width="50" height="50" relative="1" as="geometry">
            <mxPoint x="390" y="2990" as="sourcePoint" />
            <mxPoint x="390" y="3040" as="targetPoint" />
          </mxGeometry>
        </mxCell>
        <mxCell id="73" value="ไม่" style="endArrow=classic;html=1;exitX=0;exitY=0.5;entryX=0;entryY=0.5;entryDx=0;entryDy=0;" edge="1" parent="1" source="30" target="WzsOCUm1U-lIkB2MyEJJ-121">
          <mxGeometry width="50" height="50" relative="1" as="geometry">
            <mxPoint x="310" y="2950" as="sourcePoint" />
            <mxPoint x="310" y="3220" as="targetPoint" />
            <Array as="points">
              <mxPoint x="280" y="2950" />
              <mxPoint x="280" y="3225" />
            </Array>
          </mxGeometry>
        </mxCell>
        <mxCell id="74" value="ใช่" style="endArrow=classic;html=1;exitX=1;exitY=0.5;entryX=0;entryY=0.5;entryDx=0;entryDy=0;" edge="1" parent="1" source="31" target="32">
          <mxGeometry width="50" height="50" relative="1" as="geometry">
            <mxPoint x="450" y="3040" as="sourcePoint" />
            <mxPoint x="530" y="3040" as="targetPoint" />
          </mxGeometry>
        </mxCell>
        <mxCell id="75" value="ไม่" style="endArrow=classic;html=1;exitX=0.5;exitY=1;entryX=0.5;entryY=0;" edge="1" parent="1" source="31" target="34">
          <mxGeometry width="50" height="50" relative="1" as="geometry">
            <mxPoint x="390" y="3100" as="sourcePoint" />
            <mxPoint x="390" y="3150" as="targetPoint" />
          </mxGeometry>
        </mxCell>
        <mxCell id="76" value="" style="endArrow=classic;html=1;exitX=0.5;exitY=1;entryX=0.5;entryY=0;" edge="1" parent="1" source="32" target="33">
          <mxGeometry width="50" height="50" relative="1" as="geometry">
            <mxPoint x="580" y="3070" as="sourcePoint" />
            <mxPoint x="580" y="3120" as="targetPoint" />
          </mxGeometry>
        </mxCell>
        <mxCell id="78" value="" style="endArrow=classic;html=1;exitX=1;exitY=0.5;entryX=1;entryY=0.5;entryDx=0;entryDy=0;exitDx=0;exitDy=0;" edge="1" parent="1" source="34" target="WzsOCUm1U-lIkB2MyEJJ-118">
          <mxGeometry width="50" height="50" relative="1" as="geometry">
            <mxPoint x="460" y="3150" as="sourcePoint" />
            <mxPoint x="460" y="3100" as="targetPoint" />
            <Array as="points">
              <mxPoint x="480" y="3140" />
              <mxPoint x="480" y="2855" />
            </Array>
          </mxGeometry>
        </mxCell>
        <mxCell id="79" value="" style="endArrow=classic;html=1;exitX=0.5;exitY=1;entryX=0.5;entryY=0;" edge="1" parent="1" source="35" target="36">
          <mxGeometry width="50" height="50" relative="1" as="geometry">
            <mxPoint x="390" y="3340" as="sourcePoint" />
            <mxPoint x="390" y="3390" as="targetPoint" />
          </mxGeometry>
        </mxCell>
        <mxCell id="WzsOCUm1U-lIkB2MyEJJ-80" value="" style="edgeStyle=orthogonalEdgeStyle;rounded=0;orthogonalLoop=1;jettySize=auto;html=1;" edge="1" parent="1" source="WzsOCUm1U-lIkB2MyEJJ-79" target="10">
          <mxGeometry relative="1" as="geometry" />
        </mxCell>
        <mxCell id="WzsOCUm1U-lIkB2MyEJJ-79" value="" style="ellipse;whiteSpace=wrap;html=1;aspect=fixed;" vertex="1" parent="1">
          <mxGeometry x="375" y="720" width="30" height="30" as="geometry" />
        </mxCell>
        <mxCell id="WzsOCUm1U-lIkB2MyEJJ-85" value="" style="edgeStyle=orthogonalEdgeStyle;rounded=0;orthogonalLoop=1;jettySize=auto;html=1;" edge="1" parent="1" source="WzsOCUm1U-lIkB2MyEJJ-83" target="6">
          <mxGeometry relative="1" as="geometry" />
        </mxCell>
        <mxCell id="WzsOCUm1U-lIkB2MyEJJ-83" value="" style="ellipse;whiteSpace=wrap;html=1;aspect=fixed;" vertex="1" parent="1">
          <mxGeometry x="375" y="390" width="30" height="30" as="geometry" />
        </mxCell>
        <mxCell id="WzsOCUm1U-lIkB2MyEJJ-88" style="edgeStyle=orthogonalEdgeStyle;rounded=0;orthogonalLoop=1;jettySize=auto;html=1;entryX=0.5;entryY=0;entryDx=0;entryDy=0;" edge="1" parent="1" source="WzsOCUm1U-lIkB2MyEJJ-86" target="11">
          <mxGeometry relative="1" as="geometry" />
        </mxCell>
        <mxCell id="WzsOCUm1U-lIkB2MyEJJ-86" value="" style="ellipse;whiteSpace=wrap;html=1;aspect=fixed;" vertex="1" parent="1">
          <mxGeometry x="380" y="880" width="20" height="20" as="geometry" />
        </mxCell>
        <mxCell id="WzsOCUm1U-lIkB2MyEJJ-107" value="" style="edgeStyle=orthogonalEdgeStyle;rounded=0;orthogonalLoop=1;jettySize=auto;html=1;" edge="1" parent="1" source="WzsOCUm1U-lIkB2MyEJJ-89" target="20">
          <mxGeometry relative="1" as="geometry" />
        </mxCell>
        <mxCell id="WzsOCUm1U-lIkB2MyEJJ-89" value="" style="ellipse;whiteSpace=wrap;html=1;aspect=fixed;" vertex="1" parent="1">
          <mxGeometry x="380" y="1910" width="20" height="20" as="geometry" />
        </mxCell>
        <mxCell id="WzsOCUm1U-lIkB2MyEJJ-102" value="" style="edgeStyle=orthogonalEdgeStyle;rounded=0;orthogonalLoop=1;jettySize=auto;html=1;" edge="1" parent="1" source="WzsOCUm1U-lIkB2MyEJJ-90" target="13">
          <mxGeometry relative="1" as="geometry" />
        </mxCell>
        <mxCell id="WzsOCUm1U-lIkB2MyEJJ-90" value="" style="ellipse;whiteSpace=wrap;html=1;aspect=fixed;" vertex="1" parent="1">
          <mxGeometry x="375" y="1100" width="30" height="30" as="geometry" />
        </mxCell>
        <mxCell id="WzsOCUm1U-lIkB2MyEJJ-96" value="" style="edgeStyle=orthogonalEdgeStyle;rounded=0;orthogonalLoop=1;jettySize=auto;html=1;" edge="1" parent="1" source="WzsOCUm1U-lIkB2MyEJJ-94" target="15">
          <mxGeometry relative="1" as="geometry" />
        </mxCell>
        <mxCell id="WzsOCUm1U-lIkB2MyEJJ-94" value="" style="ellipse;whiteSpace=wrap;html=1;aspect=fixed;" vertex="1" parent="1">
          <mxGeometry x="375" y="1330" width="30" height="30" as="geometry" />
        </mxCell>
        <mxCell id="WzsOCUm1U-lIkB2MyEJJ-100" value="" style="edgeStyle=orthogonalEdgeStyle;rounded=0;orthogonalLoop=1;jettySize=auto;html=1;" edge="1" parent="1" source="WzsOCUm1U-lIkB2MyEJJ-98" target="18">
          <mxGeometry relative="1" as="geometry" />
        </mxCell>
        <mxCell id="WzsOCUm1U-lIkB2MyEJJ-98" value="" style="ellipse;whiteSpace=wrap;html=1;aspect=fixed;" vertex="1" parent="1">
          <mxGeometry x="380" y="1570" width="20" height="20" as="geometry" />
        </mxCell>
        <mxCell id="WzsOCUm1U-lIkB2MyEJJ-105" value="" style="edgeStyle=orthogonalEdgeStyle;rounded=0;orthogonalLoop=1;jettySize=auto;html=1;" edge="1" parent="1" source="WzsOCUm1U-lIkB2MyEJJ-104" target="19">
          <mxGeometry relative="1" as="geometry" />
        </mxCell>
        <mxCell id="WzsOCUm1U-lIkB2MyEJJ-104" value="" style="ellipse;whiteSpace=wrap;html=1;aspect=fixed;" vertex="1" parent="1">
          <mxGeometry x="375" y="1710" width="20" height="20" as="geometry" />
        </mxCell>
        <mxCell id="WzsOCUm1U-lIkB2MyEJJ-110" value="" style="edgeStyle=orthogonalEdgeStyle;rounded=0;orthogonalLoop=1;jettySize=auto;html=1;" edge="1" parent="1" source="WzsOCUm1U-lIkB2MyEJJ-108" target="26">
          <mxGeometry relative="1" as="geometry" />
        </mxCell>
        <mxCell id="WzsOCUm1U-lIkB2MyEJJ-108" value="" style="ellipse;whiteSpace=wrap;html=1;aspect=fixed;" vertex="1" parent="1">
          <mxGeometry x="380" y="2430" width="20" height="20" as="geometry" />
        </mxCell>
        <mxCell id="WzsOCUm1U-lIkB2MyEJJ-113" value="" style="edgeStyle=orthogonalEdgeStyle;rounded=0;orthogonalLoop=1;jettySize=auto;html=1;" edge="1" parent="1" source="WzsOCUm1U-lIkB2MyEJJ-111" target="22">
          <mxGeometry relative="1" as="geometry" />
        </mxCell>
        <mxCell id="WzsOCUm1U-lIkB2MyEJJ-111" value="" style="ellipse;whiteSpace=wrap;html=1;aspect=fixed;" vertex="1" parent="1">
          <mxGeometry x="380" y="2120" width="20" height="20" as="geometry" />
        </mxCell>
        <mxCell id="WzsOCUm1U-lIkB2MyEJJ-117" style="edgeStyle=orthogonalEdgeStyle;rounded=0;orthogonalLoop=1;jettySize=auto;html=1;entryX=0.5;entryY=0;entryDx=0;entryDy=0;" edge="1" parent="1" source="WzsOCUm1U-lIkB2MyEJJ-115" target="27">
          <mxGeometry relative="1" as="geometry" />
        </mxCell>
        <mxCell id="WzsOCUm1U-lIkB2MyEJJ-115" value="" style="ellipse;whiteSpace=wrap;html=1;aspect=fixed;" vertex="1" parent="1">
          <mxGeometry x="380" y="2570" width="20" height="20" as="geometry" />
        </mxCell>
        <mxCell id="WzsOCUm1U-lIkB2MyEJJ-120" value="" style="edgeStyle=orthogonalEdgeStyle;rounded=0;orthogonalLoop=1;jettySize=auto;html=1;" edge="1" parent="1" source="WzsOCUm1U-lIkB2MyEJJ-118" target="30">
          <mxGeometry relative="1" as="geometry" />
        </mxCell>
        <mxCell id="WzsOCUm1U-lIkB2MyEJJ-118" value="" style="ellipse;whiteSpace=wrap;html=1;aspect=fixed;" vertex="1" parent="1">
          <mxGeometry x="375" y="2840" width="30" height="30" as="geometry" />
        </mxCell>
        <mxCell id="WzsOCUm1U-lIkB2MyEJJ-122" value="" style="edgeStyle=orthogonalEdgeStyle;rounded=0;orthogonalLoop=1;jettySize=auto;html=1;" edge="1" parent="1" source="WzsOCUm1U-lIkB2MyEJJ-121" target="35">
          <mxGeometry relative="1" as="geometry" />
        </mxCell>
        <mxCell id="WzsOCUm1U-lIkB2MyEJJ-121" value="" style="ellipse;whiteSpace=wrap;html=1;aspect=fixed;" vertex="1" parent="1">
          <mxGeometry x="375" y="3210" width="30" height="30" as="geometry" />
        </mxCell>
      </root>
    </mxGraphModel>
  </diagram>
</mxfile>
